<svg width="53" height="59" viewBox="0 0 53 59" version="1.1" xmlns="http://www.w3.org/2000/svg"><title>Imported Layers</title><g fill="#5FB345" stroke="none" stroke-width="1" fill-rule="evenodd"><path d="M26.807 58.488h-1.54c-2.046 0-3.478-1.195-3.83-3.197-.26-1.466-.503-2.934-.746-4.403-.15-.91-.3-1.822-.455-2.733l-.03-.172c-.22-1.305-.442-2.61-.69-3.908-.12-.62-.28-1.088-.715-1.502-1.086-1.034-1.608-2.438-1.906-3.405-.438-1.416-.642-2.754-.625-4.09.012-1.04.01-2.08.006-3.12l-.006-2.81c-.004-1.082-.007-2.165.008-3.248.035-2.74 1.354-4.77 3.813-5.872 1.4-.627 2.832-.946 4.255-.946l.16.002c1.396.023 2.79.013 4.185.004h.222c1.736 0 3.396.447 4.935 1.332 1.917 1.103 3 2.94 3.05 5.174.066 2.95.068 6.098.006 9.904-.038 2.4-.684 4.53-1.92 6.334-.17.25-.367.448-.54.623-.103.105-.21.207-.296.324-.197.264-.248.4-.26.457-.304 1.373-.544 2.576-.734 3.68-.196 1.134-.382 2.272-.568 3.408-.27 1.652-.542 3.303-.84 4.95-.3 1.647-1.23 2.727-2.69 3.124-.288.076-.563.084-.798.086-.483.002-.967.002-1.45.002zm-2.462-37.44c-1.16 0-2.29.254-3.45.775-1.758.788-2.625 2.13-2.65 4.102-.015 1.072-.012 2.144-.008 3.217l.006 2.81c.003 1.05.006 2.1-.008 3.15-.014 1.128.162 2.267.538 3.485s.802 2.008 1.383 2.56c.86.82 1.135 1.753 1.29 2.556.252 1.314.475 2.632.698 3.95l.03.173c.154.913.306 1.826.457 2.74.243 1.462.485 2.924.743 4.384.188 1.072.79 1.57 1.895 1.57l1.54.002c.48 0 .96 0 1.44-.003.08-.002.23-.002.292-.02.443-.12 1.058-.414 1.27-1.577.297-1.635.565-3.275.834-4.915.188-1.143.374-2.285.57-3.426.196-1.134.442-2.366.752-3.768.112-.507.4-.935.605-1.21.157-.21.325-.38.475-.53.125-.128.244-.25.315-.353 1.015-1.48 1.545-3.247 1.577-5.254.062-3.78.06-6.903-.005-9.83-.035-1.56-.73-2.743-2.066-3.512-1.236-.71-2.567-1.07-3.954-1.07h-.21c-1.41.01-2.82.02-4.227-.004h-.13zm2.065-3.462c-2.272 0-4.42-.9-6.047-2.533-1.626-1.632-2.518-3.78-2.51-6.047C17.87 4.29 21.71.456 26.41.456c4.758.026 8.583 3.874 8.575 8.577-.007 4.703-3.843 8.54-8.55 8.553h-.025zm.036-15.164c-3.657 0-6.613 2.957-6.626 6.59-.006 1.742.682 3.395 1.936 4.653 1.255 1.26 2.91 1.955 4.654 1.955v.983l.02-.983c3.627-.01 6.583-2.967 6.59-6.59.005-3.623-2.944-6.588-6.574-6.608z"/><path d="M44.162 57.85h-1.317c-1.82 0-3.096-1.063-3.41-2.844-.22-1.247-.427-2.496-.633-3.745l-.39-2.337-.017-.094c-.19-1.13-.38-2.257-.597-3.38-.113-.592-.267-.918-.567-1.204-.947-.904-1.402-2.124-1.662-2.963-.377-1.224-.553-2.378-.538-3.53.01-.88.01-1.758.006-2.638l-.005-2.398c-.003-.93-.005-1.858.007-2.787.032-2.394 1.185-4.17 3.336-5.134 1.21-.543 2.45-.82 3.684-.82l.14.002c1.194.02 2.387.012 3.58.003h.116c1.562 0 3 .39 4.336 1.156 1.68.966 2.63 2.576 2.673 4.533.057 2.527.06 5.21.006 8.445-.033 2.073-.592 3.916-1.663 5.478-.153.223-.325.398-.476.55-.084.085-.17.167-.24.262-.16.217-.19.312-.197.337-.258 1.164-.46 2.187-.622 3.125-.166.962-.323 1.924-.482 2.886-.23 1.415-.463 2.83-.72 4.24-.262 1.443-1.113 2.43-2.398 2.776-.26.07-.506.077-.717.078l-1.228.002zm-2.105-31.906c-.968 0-1.91.21-2.88.646-1.46.656-2.152 1.726-2.173 3.366-.013.92-.01 1.837-.007 2.755l.005 2.4c.003.89.006 1.78-.005 2.668-.013.944.135 1.9.45 2.925.314 1.012.665 1.666 1.14 2.12.765.728 1.007 1.548 1.142 2.256.218 1.136.41 2.28.604 3.422l.016.093c.133.78.262 1.562.392 2.344.206 1.242.412 2.484.63 3.725.148.843.603 1.218 1.473 1.218h2.537c.048-.002.17-.002.21-.012.37-.1.816-.33.98-1.23.254-1.398.484-2.8.714-4.205.16-.967.317-1.935.484-2.9.166-.97.376-2.023.64-3.22.102-.46.357-.84.54-1.086.126-.168.27-.32.418-.47.102-.102.2-.2.253-.278.85-1.24 1.293-2.718 1.32-4.4.05-3.208.05-5.868-.006-8.37-.028-1.278-.595-2.243-1.686-2.87-1.033-.594-2.142-.895-3.3-.895h-.16c-1.206.01-2.415.018-3.622-.002h-.11zm1.76-2.95c-1.975 0-3.842-.783-5.256-2.203-1.412-1.417-2.186-3.284-2.18-5.255.015-4.1 3.35-7.432 7.438-7.432 4.135.023 7.46 3.368 7.453 7.455-.005 4.088-3.34 7.423-7.432 7.435h-.022zm.03-12.925c-3.035 0-5.49 2.454-5.5 5.472-.005 1.445.566 2.816 1.607 3.86 1.043 1.048 2.414 1.624 3.862 1.624v.984l.017-.984c3.012-.01 5.467-2.463 5.472-5.47.004-3.01-2.443-5.47-5.457-5.487zM9.405 57.85H8.088c-1.822 0-3.096-1.063-3.41-2.844-.222-1.262-.432-2.525-.64-3.79-.128-.764-.254-1.53-.383-2.294l-.03-.168c-.186-1.103-.373-2.206-.585-3.305-.113-.592-.266-.918-.566-1.204-.948-.904-1.403-2.124-1.663-2.963-.377-1.224-.553-2.378-.537-3.53.01-.886.008-1.774.006-2.662l-.006-2.394C.27 31.774.268 30.852.28 29.93c.032-2.394 1.185-4.17 3.335-5.134 1.212-.543 2.452-.82 3.684-.82l.14.002c1.194.02 2.386.012 3.578.003h.115c1.565 0 3.004.39 4.338 1.156 1.68.966 2.63 2.576 2.673 4.533.056 2.527.058 5.21.005 8.445-.033 2.073-.592 3.916-1.662 5.478-.153.223-.325.396-.475.55-.083.084-.168.167-.24.26-.162.22-.192.314-.198.34-.257 1.164-.46 2.186-.622 3.124-.166.962-.323 1.925-.48 2.886-.233 1.415-.464 2.83-.72 4.24-.264 1.443-1.115 2.43-2.4 2.776-.26.07-.505.077-.716.078l-1.23.002zM7.3 25.944c-.968 0-1.91.21-2.88.646-1.462.656-2.152 1.726-2.174 3.366-.012.91-.01 1.823-.005 2.734l.005 2.396c.002.898.005 1.795-.006 2.692-.014.944.134 1.9.45 2.925.314 1.012.665 1.666 1.14 2.12.765.728 1.006 1.548 1.142 2.256.214 1.11.403 2.228.593 3.346l.028.168c.13.767.258 1.535.384 2.302.208 1.257.417 2.514.637 3.77.15.842.603 1.217 1.474 1.217h2.537c.047-.002.17-.002.21-.012.37-.1.815-.33.98-1.23.254-1.398.483-2.8.714-4.205.157-.967.315-1.935.482-2.9.166-.97.376-2.023.64-3.22.103-.46.36-.84.543-1.087.123-.166.27-.318.416-.467.103-.102.2-.2.254-.278.848-1.24 1.29-2.718 1.318-4.4.052-3.208.05-5.868-.005-8.37-.03-1.278-.596-2.243-1.686-2.87-1.03-.594-2.14-.895-3.298-.895h-.16c-1.207.01-2.417.018-3.624-.002h-.11zm1.76-2.95c-1.976 0-3.842-.783-5.257-2.203-1.413-1.417-2.187-3.284-2.18-5.255.015-4.1 3.35-7.432 7.437-7.432 4.135.023 7.46 3.368 7.453 7.455-.006 4.088-3.34 7.423-7.433 7.435h-.02zm.03-12.925c-3.036 0-5.49 2.454-5.5 5.472-.006 1.445.565 2.816 1.606 3.86C6.24 20.45 7.61 21.027 9.06 21.027v.984l.015-.984c3.013-.01 5.467-2.463 5.472-5.47.005-3.01-2.443-5.47-5.456-5.487z"/></g></svg>